<?xml version="1.0" standalone="no"?>
<!DOCTYPE svg PUBLIC "-//W3C//DTD SVG 20010904//EN"
 "http://www.w3.org/TR/2001/REC-SVG-20010904/DTD/svg10.dtd">
<svg version="1.0" xmlns="http://www.w3.org/2000/svg"
 width="1080.000000pt" height="1080.000000pt" viewBox="0 0 1080.000000 1080.000000"
 preserveAspectRatio="xMidYMid meet">

<g transform="translate(0.000000,1080.000000) scale(0.100000,-0.100000)"
fill="#000000" stroke="none">
<path d="M1315 10681 c-47 -22 -89 -64 -104 -104 -8 -20 -11 -1564 -11 -5177
0 -3613 3 -5157 11 -5177 15 -40 57 -82 104 -104 39 -18 169 -19 4085 -19
3916 0 4046 1 4085 19 47 22 89 64 104 104 8 20 11 1295 11 4265 0 4120 -1
4238 -19 4277 -13 28 -310 331 -957 976 -816 813 -944 937 -980 947 -31 9
-827 12 -3165 12 -3019 0 -3125 -1 -3164 -19z m6087 -1209 l3 -848 28 -42 c15
-23 46 -52 70 -64 l42 -23 838 -3 837 -3 0 -4004 0 -4005 -3820 0 -3820 0 0
4920 0 4920 2910 0 2910 0 2 -848z m1356 -404 l196 -198 -587 0 -587 0 0 591
0 592 391 -394 c215 -217 479 -483 587 -591z"/>
<path d="M5216 8319 c-340 -50 -642 -269 -809 -588 -168 -321 -182 -714 -36
-1021 67 -140 180 -290 268 -355 47 -35 49 -41 19 -51 -67 -20 -301 -142 -400
-207 -454 -300 -627 -701 -465 -1075 84 -193 226 -337 409 -414 139 -58 131
-58 1191 -58 1114 0 1077 -2 1244 84 160 83 262 186 338 341 60 121 78 204 77
340 -1 292 -132 500 -472 753 -86 64 -232 146 -348 197 -59 26 -108 48 -109
49 -2 1 39 45 90 98 141 146 231 305 289 515 30 106 33 408 5 521 -109 452
-464 788 -914 867 -94 16 -280 18 -377 4z m364 -395 c36 -8 107 -35 159 -60
80 -39 109 -60 186 -138 100 -99 149 -175 189 -294 122 -357 -49 -750 -397
-913 -98 -45 -158 -59 -287 -66 -96 -4 -129 -2 -204 16 -250 60 -459 249 -541
491 -151 443 146 915 617 980 76 10 190 4 278 -16z m-31 -1874 c391 -35 710
-172 959 -414 77 -75 110 -115 134 -163 100 -204 -8 -459 -224 -527 -49 -15
-141 -16 -1038 -14 l-985 3 -57 27 c-73 34 -144 106 -183 183 -27 54 -29 70
-30 160 0 93 2 105 33 167 87 178 389 398 675 493 235 77 475 106 716 85z"/>
<path d="M2865 3776 c-135 -60 -143 -262 -13 -336 l43 -25 2470 -3 c1359 -2
2489 0 2511 3 55 8 117 50 144 97 33 59 26 153 -16 204 -16 20 -45 45 -64 55
-34 18 -119 19 -2540 19 -2071 -1 -2510 -3 -2535 -14z"/>
<path d="M2925 2843 c-11 -2 -30 -6 -42 -9 -29 -6 -90 -59 -109 -95 -17 -33
-19 -116 -3 -156 14 -38 46 -71 91 -94 36 -19 99 -19 2535 -19 2418 0 2499 1
2539 19 83 38 125 141 95 234 -18 52 -78 103 -140 116 -37 8 -743 11 -2499 10
-1346 -1 -2456 -3 -2467 -6z"/>
</g>
</svg>
